<mxfile host="Electron" modified="2024-03-29T12:47:25.281Z" agent="Mozilla/5.0 (Windows NT 10.0; Win64; x64) AppleWebKit/537.36 (KHTML, like Gecko) draw.io/24.0.4 Chrome/120.0.6099.109 Electron/28.1.0 Safari/537.36" etag="TgV-IpObkwOu_EPCTWMe" version="24.0.4" type="device">
  <diagram id="v6j27P4lt4rUeetMeHGA" name="Страница — 2">
    <mxGraphModel dx="1750" dy="2232" grid="1" gridSize="10" guides="1" tooltips="1" connect="1" arrows="1" fold="1" page="1" pageScale="1" pageWidth="827" pageHeight="1169" math="0" shadow="0">
      <root>
        <mxCell id="0" />
        <mxCell id="1" parent="0" />
        <mxCell id="c8-iHHj9m5I7r-0y1mb4-1" value="Actor" style="shape=umlActor;verticalLabelPosition=bottom;verticalAlign=top;html=1;" vertex="1" parent="1">
          <mxGeometry x="40" y="150" width="30" height="60" as="geometry" />
        </mxCell>
        <mxCell id="c8-iHHj9m5I7r-0y1mb4-2" value="" style="rounded=0;whiteSpace=wrap;html=1;fillColor=#d5e8d4;strokeColor=#82b366;" vertex="1" parent="1">
          <mxGeometry x="120" y="50" width="120" height="30" as="geometry" />
        </mxCell>
        <mxCell id="c8-iHHj9m5I7r-0y1mb4-3" value="" style="rounded=0;whiteSpace=wrap;html=1;fillColor=#d5e8d4;strokeColor=#82b366;" vertex="1" parent="1">
          <mxGeometry x="120" y="130" width="120" height="30" as="geometry" />
        </mxCell>
        <mxCell id="c8-iHHj9m5I7r-0y1mb4-4" value="" style="rounded=0;whiteSpace=wrap;html=1;fillColor=#d5e8d4;strokeColor=#82b366;" vertex="1" parent="1">
          <mxGeometry x="120" y="210" width="120" height="30" as="geometry" />
        </mxCell>
        <mxCell id="c8-iHHj9m5I7r-0y1mb4-5" value="" style="rounded=0;whiteSpace=wrap;html=1;fillColor=#d5e8d4;strokeColor=#82b366;" vertex="1" parent="1">
          <mxGeometry x="120" y="290" width="120" height="30" as="geometry" />
        </mxCell>
        <mxCell id="c8-iHHj9m5I7r-0y1mb4-6" value="UFO" style="rounded=0;whiteSpace=wrap;html=1;fillColor=#d5e8d4;strokeColor=#82b366;" vertex="1" parent="1">
          <mxGeometry x="120" y="30" width="110" height="20" as="geometry" />
        </mxCell>
        <mxCell id="c8-iHHj9m5I7r-0y1mb4-8" value="Web Site" style="rounded=0;whiteSpace=wrap;html=1;fillColor=#d5e8d4;strokeColor=#82b366;" vertex="1" parent="1">
          <mxGeometry x="120" y="110" width="110" height="20" as="geometry" />
        </mxCell>
        <mxCell id="c8-iHHj9m5I7r-0y1mb4-9" value=".NET Client" style="rounded=0;whiteSpace=wrap;html=1;fillColor=#d5e8d4;strokeColor=#82b366;" vertex="1" parent="1">
          <mxGeometry x="120" y="190" width="110" height="20" as="geometry" />
        </mxCell>
        <mxCell id="c8-iHHj9m5I7r-0y1mb4-10" value="Web Client" style="rounded=0;whiteSpace=wrap;html=1;fillColor=#d5e8d4;strokeColor=#82b366;" vertex="1" parent="1">
          <mxGeometry x="120" y="270" width="110" height="20" as="geometry" />
        </mxCell>
        <mxCell id="c8-iHHj9m5I7r-0y1mb4-13" value="" style="rounded=0;whiteSpace=wrap;html=1;fillColor=#fff2cc;strokeColor=#d6b656;" vertex="1" parent="1">
          <mxGeometry x="120" y="450" width="120" height="30" as="geometry" />
        </mxCell>
        <mxCell id="c8-iHHj9m5I7r-0y1mb4-14" value="" style="rounded=0;whiteSpace=wrap;html=1;fillColor=#fff2cc;strokeColor=#d6b656;" vertex="1" parent="1">
          <mxGeometry x="120" y="530" width="120" height="30" as="geometry" />
        </mxCell>
        <mxCell id="c8-iHHj9m5I7r-0y1mb4-15" value="" style="rounded=0;whiteSpace=wrap;html=1;fillColor=#fff2cc;strokeColor=#d6b656;" vertex="1" parent="1">
          <mxGeometry x="120" y="610" width="120" height="30" as="geometry" />
        </mxCell>
        <mxCell id="c8-iHHj9m5I7r-0y1mb4-16" value="" style="rounded=0;whiteSpace=wrap;html=1;fillColor=#fff2cc;strokeColor=#d6b656;" vertex="1" parent="1">
          <mxGeometry x="120" y="690" width="120" height="30" as="geometry" />
        </mxCell>
        <mxCell id="c8-iHHj9m5I7r-0y1mb4-17" value="Онлайн-заявка" style="rounded=0;whiteSpace=wrap;html=1;fillColor=#fff2cc;strokeColor=#d6b656;" vertex="1" parent="1">
          <mxGeometry x="120" y="430" width="110" height="20" as="geometry" />
        </mxCell>
        <mxCell id="c8-iHHj9m5I7r-0y1mb4-18" value="POS-Online" style="rounded=0;whiteSpace=wrap;html=1;fillColor=#fff2cc;strokeColor=#d6b656;" vertex="1" parent="1">
          <mxGeometry x="120" y="510" width="110" height="20" as="geometry" />
        </mxCell>
        <mxCell id="c8-iHHj9m5I7r-0y1mb4-19" value="DataHub" style="rounded=0;whiteSpace=wrap;html=1;fillColor=#fff2cc;strokeColor=#d6b656;" vertex="1" parent="1">
          <mxGeometry x="280" y="670" width="110" height="20" as="geometry" />
        </mxCell>
        <mxCell id="c8-iHHj9m5I7r-0y1mb4-21" value="Email" style="rounded=0;whiteSpace=wrap;html=1;fillColor=#fff2cc;strokeColor=#d6b656;" vertex="1" parent="1">
          <mxGeometry x="120" y="590" width="110" height="20" as="geometry" />
        </mxCell>
        <mxCell id="c8-iHHj9m5I7r-0y1mb4-23" value="" style="swimlane;startSize=0;" vertex="1" parent="1">
          <mxGeometry x="280" y="40" width="210" height="210" as="geometry" />
        </mxCell>
        <mxCell id="c8-iHHj9m5I7r-0y1mb4-24" value="WebClient" style="html=1;dropTarget=0;whiteSpace=wrap;fillColor=#fff2cc;strokeColor=#d6b656;" vertex="1" parent="c8-iHHj9m5I7r-0y1mb4-23">
          <mxGeometry y="20" width="100" height="40" as="geometry" />
        </mxCell>
        <mxCell id="c8-iHHj9m5I7r-0y1mb4-25" value="" style="shape=module;jettyWidth=8;jettyHeight=4;" vertex="1" parent="c8-iHHj9m5I7r-0y1mb4-24">
          <mxGeometry x="1" width="12" height="20" relative="1" as="geometry">
            <mxPoint x="-19" y="7" as="offset" />
          </mxGeometry>
        </mxCell>
        <mxCell id="c8-iHHj9m5I7r-0y1mb4-27" value="WebService" style="html=1;dropTarget=0;whiteSpace=wrap;fillColor=#fff2cc;strokeColor=#d6b656;" vertex="1" parent="c8-iHHj9m5I7r-0y1mb4-23">
          <mxGeometry x="110" y="20" width="100" height="40" as="geometry" />
        </mxCell>
        <mxCell id="c8-iHHj9m5I7r-0y1mb4-28" value="" style="shape=module;jettyWidth=8;jettyHeight=4;" vertex="1" parent="c8-iHHj9m5I7r-0y1mb4-27">
          <mxGeometry x="1" width="12" height="20" relative="1" as="geometry">
            <mxPoint x="-19" y="7" as="offset" />
          </mxGeometry>
        </mxCell>
        <mxCell id="c8-iHHj9m5I7r-0y1mb4-29" value="Payment&lt;br&gt;Broker&lt;br&gt;WS" style="html=1;dropTarget=0;whiteSpace=wrap;fillColor=#fff2cc;strokeColor=#d6b656;" vertex="1" parent="c8-iHHj9m5I7r-0y1mb4-23">
          <mxGeometry y="70" width="100" height="40" as="geometry" />
        </mxCell>
        <mxCell id="c8-iHHj9m5I7r-0y1mb4-30" value="" style="shape=module;jettyWidth=8;jettyHeight=4;" vertex="1" parent="c8-iHHj9m5I7r-0y1mb4-29">
          <mxGeometry x="1" width="12" height="20" relative="1" as="geometry">
            <mxPoint x="-19" y="7" as="offset" />
          </mxGeometry>
        </mxCell>
        <mxCell id="c8-iHHj9m5I7r-0y1mb4-31" value="Scan WS" style="html=1;dropTarget=0;whiteSpace=wrap;fillColor=#fff2cc;strokeColor=#d6b656;" vertex="1" parent="c8-iHHj9m5I7r-0y1mb4-23">
          <mxGeometry x="110" y="70" width="100" height="40" as="geometry" />
        </mxCell>
        <mxCell id="c8-iHHj9m5I7r-0y1mb4-32" value="" style="shape=module;jettyWidth=8;jettyHeight=4;" vertex="1" parent="c8-iHHj9m5I7r-0y1mb4-31">
          <mxGeometry x="1" width="12" height="20" relative="1" as="geometry">
            <mxPoint x="-19" y="7" as="offset" />
          </mxGeometry>
        </mxCell>
        <mxCell id="c8-iHHj9m5I7r-0y1mb4-33" value="CIF WS" style="html=1;dropTarget=0;whiteSpace=wrap;fillColor=#fff2cc;strokeColor=#d6b656;" vertex="1" parent="c8-iHHj9m5I7r-0y1mb4-23">
          <mxGeometry y="120" width="100" height="40" as="geometry" />
        </mxCell>
        <mxCell id="c8-iHHj9m5I7r-0y1mb4-34" value="" style="shape=module;jettyWidth=8;jettyHeight=4;" vertex="1" parent="c8-iHHj9m5I7r-0y1mb4-33">
          <mxGeometry x="1" width="12" height="20" relative="1" as="geometry">
            <mxPoint x="-19" y="7" as="offset" />
          </mxGeometry>
        </mxCell>
        <mxCell id="c8-iHHj9m5I7r-0y1mb4-35" value="Print&amp;nbsp;&lt;br&gt;Server" style="html=1;dropTarget=0;whiteSpace=wrap;fillColor=#fff2cc;strokeColor=#d6b656;" vertex="1" parent="c8-iHHj9m5I7r-0y1mb4-23">
          <mxGeometry x="110" y="120" width="100" height="40" as="geometry" />
        </mxCell>
        <mxCell id="c8-iHHj9m5I7r-0y1mb4-36" value="" style="shape=module;jettyWidth=8;jettyHeight=4;" vertex="1" parent="c8-iHHj9m5I7r-0y1mb4-35">
          <mxGeometry x="1" width="12" height="20" relative="1" as="geometry">
            <mxPoint x="-19" y="7" as="offset" />
          </mxGeometry>
        </mxCell>
        <mxCell id="c8-iHHj9m5I7r-0y1mb4-37" value="Storage&lt;br&gt;WS" style="html=1;dropTarget=0;whiteSpace=wrap;fillColor=#fff2cc;strokeColor=#d6b656;" vertex="1" parent="c8-iHHj9m5I7r-0y1mb4-23">
          <mxGeometry y="170" width="100" height="40" as="geometry" />
        </mxCell>
        <mxCell id="c8-iHHj9m5I7r-0y1mb4-38" value="" style="shape=module;jettyWidth=8;jettyHeight=4;" vertex="1" parent="c8-iHHj9m5I7r-0y1mb4-37">
          <mxGeometry x="1" width="12" height="20" relative="1" as="geometry">
            <mxPoint x="-19" y="7" as="offset" />
          </mxGeometry>
        </mxCell>
        <mxCell id="c8-iHHj9m5I7r-0y1mb4-39" value="Иные..." style="html=1;dropTarget=0;whiteSpace=wrap;fillColor=#fff2cc;strokeColor=#d6b656;" vertex="1" parent="c8-iHHj9m5I7r-0y1mb4-23">
          <mxGeometry x="110" y="170" width="100" height="40" as="geometry" />
        </mxCell>
        <mxCell id="c8-iHHj9m5I7r-0y1mb4-40" value="" style="shape=module;jettyWidth=8;jettyHeight=4;" vertex="1" parent="c8-iHHj9m5I7r-0y1mb4-39">
          <mxGeometry x="1" width="12" height="20" relative="1" as="geometry">
            <mxPoint x="-19" y="7" as="offset" />
          </mxGeometry>
        </mxCell>
        <mxCell id="c8-iHHj9m5I7r-0y1mb4-41" value="" style="shape=folder;fontStyle=1;spacingTop=10;tabWidth=40;tabHeight=14;tabPosition=left;html=1;whiteSpace=wrap;" vertex="1" parent="1">
          <mxGeometry x="280" y="430" width="220" height="170" as="geometry" />
        </mxCell>
        <mxCell id="c8-iHHj9m5I7r-0y1mb4-42" value="HOMERU" style="html=1;dropTarget=0;whiteSpace=wrap;fillColor=#fff2cc;strokeColor=#d6b656;" vertex="1" parent="1">
          <mxGeometry x="280" y="450" width="100" height="40" as="geometry" />
        </mxCell>
        <mxCell id="c8-iHHj9m5I7r-0y1mb4-43" value="" style="shape=module;jettyWidth=8;jettyHeight=4;" vertex="1" parent="c8-iHHj9m5I7r-0y1mb4-42">
          <mxGeometry x="1" width="12" height="20" relative="1" as="geometry">
            <mxPoint x="-19" y="7" as="offset" />
          </mxGeometry>
        </mxCell>
        <mxCell id="c8-iHHj9m5I7r-0y1mb4-44" value="CIF" style="html=1;dropTarget=0;whiteSpace=wrap;fillColor=#fff2cc;strokeColor=#d6b656;" vertex="1" parent="1">
          <mxGeometry x="390" y="450" width="100" height="40" as="geometry" />
        </mxCell>
        <mxCell id="c8-iHHj9m5I7r-0y1mb4-45" value="" style="shape=module;jettyWidth=8;jettyHeight=4;" vertex="1" parent="c8-iHHj9m5I7r-0y1mb4-44">
          <mxGeometry x="1" width="12" height="20" relative="1" as="geometry">
            <mxPoint x="-19" y="7" as="offset" />
          </mxGeometry>
        </mxCell>
        <mxCell id="c8-iHHj9m5I7r-0y1mb4-46" value="Scran" style="html=1;dropTarget=0;whiteSpace=wrap;fillColor=#fff2cc;strokeColor=#d6b656;" vertex="1" parent="1">
          <mxGeometry x="280" y="500" width="100" height="40" as="geometry" />
        </mxCell>
        <mxCell id="c8-iHHj9m5I7r-0y1mb4-47" value="" style="shape=module;jettyWidth=8;jettyHeight=4;" vertex="1" parent="c8-iHHj9m5I7r-0y1mb4-46">
          <mxGeometry x="1" width="12" height="20" relative="1" as="geometry">
            <mxPoint x="-19" y="7" as="offset" />
          </mxGeometry>
        </mxCell>
        <mxCell id="c8-iHHj9m5I7r-0y1mb4-48" value="LAPS" style="html=1;dropTarget=0;whiteSpace=wrap;fillColor=#fff2cc;strokeColor=#d6b656;" vertex="1" parent="1">
          <mxGeometry x="390" y="500" width="100" height="40" as="geometry" />
        </mxCell>
        <mxCell id="c8-iHHj9m5I7r-0y1mb4-49" value="" style="shape=module;jettyWidth=8;jettyHeight=4;" vertex="1" parent="c8-iHHj9m5I7r-0y1mb4-48">
          <mxGeometry x="1" width="12" height="20" relative="1" as="geometry">
            <mxPoint x="-19" y="7" as="offset" />
          </mxGeometry>
        </mxCell>
        <mxCell id="c8-iHHj9m5I7r-0y1mb4-50" value="ScranAR" style="html=1;dropTarget=0;whiteSpace=wrap;fillColor=#fff2cc;strokeColor=#d6b656;" vertex="1" parent="1">
          <mxGeometry x="281" y="550" width="100" height="40" as="geometry" />
        </mxCell>
        <mxCell id="c8-iHHj9m5I7r-0y1mb4-51" value="" style="shape=module;jettyWidth=8;jettyHeight=4;" vertex="1" parent="c8-iHHj9m5I7r-0y1mb4-50">
          <mxGeometry x="1" width="12" height="20" relative="1" as="geometry">
            <mxPoint x="-19" y="7" as="offset" />
          </mxGeometry>
        </mxCell>
        <mxCell id="c8-iHHj9m5I7r-0y1mb4-52" value="DTS/WPS" style="html=1;dropTarget=0;whiteSpace=wrap;fillColor=#fff2cc;strokeColor=#d6b656;" vertex="1" parent="1">
          <mxGeometry x="390" y="550" width="100" height="40" as="geometry" />
        </mxCell>
        <mxCell id="c8-iHHj9m5I7r-0y1mb4-53" value="" style="shape=module;jettyWidth=8;jettyHeight=4;" vertex="1" parent="c8-iHHj9m5I7r-0y1mb4-52">
          <mxGeometry x="1" width="12" height="20" relative="1" as="geometry">
            <mxPoint x="-19" y="7" as="offset" />
          </mxGeometry>
        </mxCell>
        <mxCell id="c8-iHHj9m5I7r-0y1mb4-54" value="" style="rounded=0;whiteSpace=wrap;html=1;fillColor=#fff2cc;strokeColor=#d6b656;" vertex="1" parent="1">
          <mxGeometry x="280" y="690" width="120" height="30" as="geometry" />
        </mxCell>
        <mxCell id="c8-iHHj9m5I7r-0y1mb4-55" value="HADOOP" style="rounded=0;whiteSpace=wrap;html=1;fillColor=#fff2cc;strokeColor=#d6b656;" vertex="1" parent="1">
          <mxGeometry x="120" y="670" width="110" height="20" as="geometry" />
        </mxCell>
        <mxCell id="c8-iHHj9m5I7r-0y1mb4-56" value="Microservice" style="shape=folder;fontStyle=1;spacingTop=10;tabWidth=40;tabHeight=14;tabPosition=left;html=1;whiteSpace=wrap;fillColor=#fff2cc;strokeColor=#d6b656;" vertex="1" parent="1">
          <mxGeometry x="560" y="-10" width="150" height="50" as="geometry" />
        </mxCell>
        <mxCell id="c8-iHHj9m5I7r-0y1mb4-57" value="OBS" style="shape=folder;fontStyle=1;spacingTop=10;tabWidth=40;tabHeight=14;tabPosition=left;html=1;whiteSpace=wrap;fillColor=#fff2cc;strokeColor=#d6b656;" vertex="1" parent="1">
          <mxGeometry x="560" y="80" width="120" height="360" as="geometry" />
        </mxCell>
        <mxCell id="c8-iHHj9m5I7r-0y1mb4-58" value="" style="rounded=0;whiteSpace=wrap;html=1;fillColor=#fff2cc;strokeColor=#d6b656;" vertex="1" parent="1">
          <mxGeometry x="600" y="680" width="120" height="30" as="geometry" />
        </mxCell>
        <mxCell id="c8-iHHj9m5I7r-0y1mb4-59" value="HomeDWH" style="rounded=0;whiteSpace=wrap;html=1;fillColor=#fff2cc;strokeColor=#d6b656;" vertex="1" parent="1">
          <mxGeometry x="600" y="660" width="110" height="20" as="geometry" />
        </mxCell>
        <mxCell id="c8-iHHj9m5I7r-0y1mb4-60" value="" style="rounded=0;whiteSpace=wrap;html=1;fillColor=#fff2cc;strokeColor=#d6b656;" vertex="1" parent="1">
          <mxGeometry x="600" y="610" width="120" height="30" as="geometry" />
        </mxCell>
        <mxCell id="c8-iHHj9m5I7r-0y1mb4-62" value="ETL" style="rounded=0;whiteSpace=wrap;html=1;fillColor=#fff2cc;strokeColor=#d6b656;" vertex="1" parent="1">
          <mxGeometry x="600" y="590" width="110" height="20" as="geometry" />
        </mxCell>
        <mxCell id="c8-iHHj9m5I7r-0y1mb4-64" value="Mobile App" style="rounded=0;whiteSpace=wrap;html=1;fillColor=#fff2cc;strokeColor=#d6b656;" vertex="1" parent="1">
          <mxGeometry x="960" y="100" width="110" height="20" as="geometry" />
        </mxCell>
        <mxCell id="c8-iHHj9m5I7r-0y1mb4-65" value="" style="rounded=0;whiteSpace=wrap;html=1;fillColor=#fff2cc;strokeColor=#d6b656;" vertex="1" parent="1">
          <mxGeometry x="720" y="450" width="120" height="30" as="geometry" />
        </mxCell>
        <mxCell id="c8-iHHj9m5I7r-0y1mb4-66" value="" style="rounded=0;whiteSpace=wrap;html=1;fillColor=#fff2cc;strokeColor=#d6b656;" vertex="1" parent="1">
          <mxGeometry x="600" y="520" width="120" height="30" as="geometry" />
        </mxCell>
        <mxCell id="c8-iHHj9m5I7r-0y1mb4-67" value="SMSGate" style="rounded=0;whiteSpace=wrap;html=1;fillColor=#fff2cc;strokeColor=#d6b656;" vertex="1" parent="1">
          <mxGeometry x="600" y="500" width="110" height="20" as="geometry" />
        </mxCell>
        <mxCell id="c8-iHHj9m5I7r-0y1mb4-68" value="" style="rounded=0;whiteSpace=wrap;html=1;fillColor=#fff2cc;strokeColor=#d6b656;" vertex="1" parent="1">
          <mxGeometry x="960" y="210" width="120" height="30" as="geometry" />
        </mxCell>
        <mxCell id="c8-iHHj9m5I7r-0y1mb4-69" value="ORM" style="rounded=0;whiteSpace=wrap;html=1;fillColor=#fff2cc;strokeColor=#d6b656;" vertex="1" parent="1">
          <mxGeometry x="720" y="430" width="110" height="20" as="geometry" />
        </mxCell>
        <mxCell id="c8-iHHj9m5I7r-0y1mb4-70" value="" style="rounded=0;whiteSpace=wrap;html=1;fillColor=#fff2cc;strokeColor=#d6b656;" vertex="1" parent="1">
          <mxGeometry x="720" y="290" width="120" height="30" as="geometry" />
        </mxCell>
        <mxCell id="c8-iHHj9m5I7r-0y1mb4-71" value="Quorum DB" style="rounded=0;whiteSpace=wrap;html=1;fillColor=#fff2cc;strokeColor=#d6b656;" vertex="1" parent="1">
          <mxGeometry x="720" y="350" width="110" height="20" as="geometry" />
        </mxCell>
        <mxCell id="c8-iHHj9m5I7r-0y1mb4-72" value="SSO" style="rounded=0;whiteSpace=wrap;html=1;fillColor=#fff2cc;strokeColor=#d6b656;" vertex="1" parent="1">
          <mxGeometry x="720" y="200" width="120" height="30" as="geometry" />
        </mxCell>
        <mxCell id="c8-iHHj9m5I7r-0y1mb4-73" value="" style="rounded=0;whiteSpace=wrap;html=1;fillColor=#fff2cc;strokeColor=#d6b656;" vertex="1" parent="1">
          <mxGeometry x="720" y="130" width="120" height="30" as="geometry" />
        </mxCell>
        <mxCell id="c8-iHHj9m5I7r-0y1mb4-74" value="" style="rounded=0;whiteSpace=wrap;html=1;fillColor=#fff2cc;strokeColor=#d6b656;" vertex="1" parent="1">
          <mxGeometry x="720" y="370" width="120" height="30" as="geometry" />
        </mxCell>
        <mxCell id="c8-iHHj9m5I7r-0y1mb4-75" value="Scan Server" style="rounded=0;whiteSpace=wrap;html=1;fillColor=#fff2cc;strokeColor=#d6b656;" vertex="1" parent="1">
          <mxGeometry x="720" y="110" width="110" height="20" as="geometry" />
        </mxCell>
        <mxCell id="c8-iHHj9m5I7r-0y1mb4-76" value="FIM" style="rounded=0;whiteSpace=wrap;html=1;fillColor=#fff2cc;strokeColor=#d6b656;" vertex="1" parent="1">
          <mxGeometry x="720" y="180" width="110" height="20" as="geometry" />
        </mxCell>
        <mxCell id="c8-iHHj9m5I7r-0y1mb4-77" value="Quorum&amp;nbsp;" style="rounded=0;whiteSpace=wrap;html=1;fillColor=#fff2cc;strokeColor=#d6b656;" vertex="1" parent="1">
          <mxGeometry x="720" y="270" width="110" height="20" as="geometry" />
        </mxCell>
        <mxCell id="c8-iHHj9m5I7r-0y1mb4-81" value="WEB dev" style="shape=folder;fontStyle=1;spacingTop=10;tabWidth=40;tabHeight=14;tabPosition=left;html=1;whiteSpace=wrap;fillColor=#ffe6cc;strokeColor=#d79b00;" vertex="1" parent="1">
          <mxGeometry x="760" y="550" width="70" height="50" as="geometry" />
        </mxCell>
        <mxCell id="c8-iHHj9m5I7r-0y1mb4-82" value="MDM" style="shape=folder;fontStyle=1;spacingTop=10;tabWidth=40;tabHeight=14;tabPosition=left;html=1;whiteSpace=wrap;fillColor=#ffe6cc;strokeColor=#d79b00;" vertex="1" parent="1">
          <mxGeometry x="760" y="610" width="70" height="50" as="geometry" />
        </mxCell>
        <mxCell id="c8-iHHj9m5I7r-0y1mb4-83" value="Tracing&amp;nbsp;" style="shape=folder;fontStyle=1;spacingTop=10;tabWidth=40;tabHeight=14;tabPosition=left;html=1;whiteSpace=wrap;fillColor=#ffe6cc;strokeColor=#d79b00;" vertex="1" parent="1">
          <mxGeometry x="760" y="670" width="70" height="50" as="geometry" />
        </mxCell>
        <mxCell id="c8-iHHj9m5I7r-0y1mb4-86" value="" style="rounded=0;whiteSpace=wrap;html=1;fillColor=#fff2cc;strokeColor=#d6b656;" vertex="1" parent="1">
          <mxGeometry x="960" y="120" width="120" height="30" as="geometry" />
        </mxCell>
        <mxCell id="c8-iHHj9m5I7r-0y1mb4-87" value="SAP" style="rounded=0;whiteSpace=wrap;html=1;fillColor=#fff2cc;strokeColor=#d6b656;" vertex="1" parent="1">
          <mxGeometry x="960" y="190" width="110" height="20" as="geometry" />
        </mxCell>
        <mxCell id="c8-iHHj9m5I7r-0y1mb4-88" value="" style="rounded=0;whiteSpace=wrap;html=1;fillColor=#fff2cc;strokeColor=#d6b656;" vertex="1" parent="1">
          <mxGeometry x="1000" y="480" width="120" height="30" as="geometry" />
        </mxCell>
        <mxCell id="c8-iHHj9m5I7r-0y1mb4-89" value="Monolith" style="rounded=0;whiteSpace=wrap;html=1;fillColor=#fff2cc;strokeColor=#d6b656;" vertex="1" parent="1">
          <mxGeometry x="1120" y="230" width="110" height="20" as="geometry" />
        </mxCell>
        <mxCell id="c8-iHHj9m5I7r-0y1mb4-91" value="" style="rounded=0;whiteSpace=wrap;html=1;fillColor=#fff2cc;strokeColor=#d6b656;" vertex="1" parent="1">
          <mxGeometry x="1000" y="410" width="120" height="30" as="geometry" />
        </mxCell>
        <mxCell id="c8-iHHj9m5I7r-0y1mb4-92" value="SPM" style="rounded=0;whiteSpace=wrap;html=1;fillColor=#ffe6cc;strokeColor=#d79b00;" vertex="1" parent="1">
          <mxGeometry x="880" y="590" width="110" height="20" as="geometry" />
        </mxCell>
        <mxCell id="c8-iHHj9m5I7r-0y1mb4-93" value="" style="rounded=0;whiteSpace=wrap;html=1;fillColor=#fff2cc;strokeColor=#d6b656;" vertex="1" parent="1">
          <mxGeometry x="1120" y="250" width="120" height="30" as="geometry" />
        </mxCell>
        <mxCell id="c8-iHHj9m5I7r-0y1mb4-94" value="TWCMS" style="rounded=0;whiteSpace=wrap;html=1;fillColor=#fff2cc;strokeColor=#d6b656;" vertex="1" parent="1">
          <mxGeometry x="1000" y="390" width="110" height="20" as="geometry" />
        </mxCell>
        <mxCell id="c8-iHHj9m5I7r-0y1mb4-96" value="" style="rounded=0;whiteSpace=wrap;html=1;fillColor=#ffe6cc;strokeColor=#d79b00;" vertex="1" parent="1">
          <mxGeometry x="880" y="610" width="120" height="30" as="geometry" />
        </mxCell>
        <mxCell id="c8-iHHj9m5I7r-0y1mb4-97" value="TW Server" style="rounded=0;whiteSpace=wrap;html=1;fillColor=#fff2cc;strokeColor=#d6b656;" vertex="1" parent="1">
          <mxGeometry x="1000" y="460" width="110" height="20" as="geometry" />
        </mxCell>
        <mxCell id="c8-iHHj9m5I7r-0y1mb4-98" value="" style="rounded=0;whiteSpace=wrap;html=1;fillColor=#fff2cc;strokeColor=#d6b656;" vertex="1" parent="1">
          <mxGeometry x="880" y="680" width="120" height="30" as="geometry" />
        </mxCell>
        <mxCell id="c8-iHHj9m5I7r-0y1mb4-99" value="Manzana" style="rounded=0;whiteSpace=wrap;html=1;fillColor=#fff2cc;strokeColor=#d6b656;" vertex="1" parent="1">
          <mxGeometry x="880" y="660" width="110" height="20" as="geometry" />
        </mxCell>
        <mxCell id="c8-iHHj9m5I7r-0y1mb4-100" value="" style="edgeStyle=elbowEdgeStyle;html=1;endArrow=open;elbow=vertical;endFill=0;dashed=1;startArrow=open;startFill=0;dashPattern=1 4;rounded=0;entryX=0;entryY=0.75;entryDx=0;entryDy=0;" edge="1" parent="1" target="c8-iHHj9m5I7r-0y1mb4-2">
          <mxGeometry width="160" relative="1" as="geometry">
            <mxPoint x="60" y="160" as="sourcePoint" />
            <mxPoint x="210" y="180" as="targetPoint" />
          </mxGeometry>
        </mxCell>
        <mxCell id="c8-iHHj9m5I7r-0y1mb4-101" value="" style="edgeStyle=elbowEdgeStyle;html=1;endArrow=open;elbow=vertical;endFill=0;dashed=1;startArrow=open;startFill=0;dashPattern=1 4;rounded=0;entryX=0;entryY=0.75;entryDx=0;entryDy=0;exitX=0.318;exitY=0.523;exitDx=0;exitDy=0;exitPerimeter=0;" edge="1" parent="1" source="c8-iHHj9m5I7r-0y1mb4-1" target="c8-iHHj9m5I7r-0y1mb4-4">
          <mxGeometry width="160" relative="1" as="geometry">
            <mxPoint x="70" y="180" as="sourcePoint" />
            <mxPoint x="90" y="250" as="targetPoint" />
          </mxGeometry>
        </mxCell>
        <mxCell id="c8-iHHj9m5I7r-0y1mb4-102" value="" style="edgeStyle=elbowEdgeStyle;html=1;endArrow=open;elbow=vertical;endFill=0;dashed=1;startArrow=open;startFill=0;dashPattern=1 4;rounded=0;entryX=0;entryY=0.5;entryDx=0;entryDy=0;exitX=0.561;exitY=0.68;exitDx=0;exitDy=0;exitPerimeter=0;" edge="1" parent="1" source="c8-iHHj9m5I7r-0y1mb4-1" target="c8-iHHj9m5I7r-0y1mb4-5">
          <mxGeometry width="160" relative="1" as="geometry">
            <mxPoint x="40" y="350" as="sourcePoint" />
            <mxPoint x="100" y="263" as="targetPoint" />
          </mxGeometry>
        </mxCell>
        <mxCell id="c8-iHHj9m5I7r-0y1mb4-103" value="" style="edgeStyle=elbowEdgeStyle;html=1;endArrow=open;elbow=vertical;endFill=0;dashed=1;startArrow=open;startFill=0;dashPattern=1 4;rounded=0;entryX=0;entryY=0.75;entryDx=0;entryDy=0;" edge="1" parent="1" target="c8-iHHj9m5I7r-0y1mb4-3">
          <mxGeometry width="160" relative="1" as="geometry">
            <mxPoint x="60" y="170" as="sourcePoint" />
            <mxPoint x="100" y="163" as="targetPoint" />
          </mxGeometry>
        </mxCell>
        <mxCell id="c8-iHHj9m5I7r-0y1mb4-105" value="" style="edgeStyle=elbowEdgeStyle;html=1;endArrow=open;elbow=vertical;endFill=0;dashed=1;startArrow=open;startFill=0;dashPattern=1 4;rounded=0;" edge="1" parent="1">
          <mxGeometry width="160" relative="1" as="geometry">
            <mxPoint x="240" y="145" as="sourcePoint" />
            <mxPoint x="280" y="144.55" as="targetPoint" />
          </mxGeometry>
        </mxCell>
        <mxCell id="c8-iHHj9m5I7r-0y1mb4-127" value="WS" style="edgeLabel;html=1;align=center;verticalAlign=middle;resizable=0;points=[];" vertex="1" connectable="0" parent="c8-iHHj9m5I7r-0y1mb4-105">
          <mxGeometry x="0.2397" relative="1" as="geometry">
            <mxPoint as="offset" />
          </mxGeometry>
        </mxCell>
        <mxCell id="c8-iHHj9m5I7r-0y1mb4-106" value="" style="edgeStyle=elbowEdgeStyle;html=1;endArrow=open;elbow=vertical;endFill=0;dashed=1;startArrow=open;startFill=0;dashPattern=1 4;rounded=0;" edge="1" parent="1">
          <mxGeometry width="160" relative="1" as="geometry">
            <mxPoint x="240" y="225" as="sourcePoint" />
            <mxPoint x="280" y="224.55" as="targetPoint" />
          </mxGeometry>
        </mxCell>
        <mxCell id="c8-iHHj9m5I7r-0y1mb4-126" value="Ws" style="edgeLabel;html=1;align=center;verticalAlign=middle;resizable=0;points=[];" vertex="1" connectable="0" parent="c8-iHHj9m5I7r-0y1mb4-106">
          <mxGeometry x="0.3296" relative="1" as="geometry">
            <mxPoint as="offset" />
          </mxGeometry>
        </mxCell>
        <mxCell id="c8-iHHj9m5I7r-0y1mb4-107" value="" style="edgeStyle=elbowEdgeStyle;html=1;endArrow=open;elbow=horizontal;endFill=0;dashed=1;startArrow=open;startFill=0;dashPattern=1 4;rounded=0;entryX=0.5;entryY=0;entryDx=0;entryDy=0;exitX=0.437;exitY=0.912;exitDx=0;exitDy=0;exitPerimeter=0;" edge="1" parent="1" source="c8-iHHj9m5I7r-0y1mb4-5" target="c8-iHHj9m5I7r-0y1mb4-17">
          <mxGeometry width="160" relative="1" as="geometry">
            <mxPoint x="155" y="369.53999999999996" as="sourcePoint" />
            <mxPoint x="195" y="369.09000000000003" as="targetPoint" />
          </mxGeometry>
        </mxCell>
        <mxCell id="c8-iHHj9m5I7r-0y1mb4-108" value="WS" style="edgeLabel;html=1;align=center;verticalAlign=middle;resizable=0;points=[];" vertex="1" connectable="0" parent="c8-iHHj9m5I7r-0y1mb4-107">
          <mxGeometry x="-0.4504" y="-3" relative="1" as="geometry">
            <mxPoint as="offset" />
          </mxGeometry>
        </mxCell>
        <mxCell id="c8-iHHj9m5I7r-0y1mb4-114" value="" style="edgeStyle=elbowEdgeStyle;html=1;endArrow=open;elbow=vertical;endFill=0;dashed=1;startArrow=open;startFill=0;dashPattern=1 4;rounded=0;entryX=0;entryY=0.75;entryDx=0;entryDy=0;exitX=0;exitY=0.25;exitDx=0;exitDy=0;" edge="1" parent="1" source="c8-iHHj9m5I7r-0y1mb4-14" target="c8-iHHj9m5I7r-0y1mb4-5">
          <mxGeometry width="160" relative="1" as="geometry">
            <mxPoint x="-10" y="520" as="sourcePoint" />
            <mxPoint x="100" y="384.75" as="targetPoint" />
            <Array as="points">
              <mxPoint x="80" y="430" />
            </Array>
          </mxGeometry>
        </mxCell>
        <mxCell id="c8-iHHj9m5I7r-0y1mb4-116" value="WS" style="edgeLabel;html=1;align=center;verticalAlign=middle;resizable=0;points=[];" vertex="1" connectable="0" parent="c8-iHHj9m5I7r-0y1mb4-114">
          <mxGeometry x="0.0568" y="3" relative="1" as="geometry">
            <mxPoint as="offset" />
          </mxGeometry>
        </mxCell>
        <mxCell id="c8-iHHj9m5I7r-0y1mb4-117" value="" style="edgeStyle=elbowEdgeStyle;html=1;endArrow=open;elbow=vertical;endFill=0;dashed=1;startArrow=open;startFill=0;dashPattern=1 4;rounded=0;entryX=0.077;entryY=0.929;entryDx=0;entryDy=0;entryPerimeter=0;exitX=0;exitY=0.5;exitDx=0;exitDy=0;" edge="1" parent="1" source="c8-iHHj9m5I7r-0y1mb4-16" target="c8-iHHj9m5I7r-0y1mb4-37">
          <mxGeometry width="160" relative="1" as="geometry">
            <mxPoint x="-50" y="514.0000406901041" as="sourcePoint" />
            <mxPoint x="280" y="250.17" as="targetPoint" />
            <Array as="points">
              <mxPoint x="200" y="390" />
            </Array>
          </mxGeometry>
        </mxCell>
        <mxCell id="c8-iHHj9m5I7r-0y1mb4-118" value="Kafka" style="edgeLabel;html=1;align=center;verticalAlign=middle;resizable=0;points=[];" vertex="1" connectable="0" parent="c8-iHHj9m5I7r-0y1mb4-117">
          <mxGeometry x="0.3951" relative="1" as="geometry">
            <mxPoint as="offset" />
          </mxGeometry>
        </mxCell>
        <mxCell id="c8-iHHj9m5I7r-0y1mb4-119" value="" style="edgeStyle=elbowEdgeStyle;html=1;endArrow=open;elbow=horizontal;endFill=0;dashed=1;startArrow=open;startFill=0;dashPattern=1 4;rounded=0;entryX=0.295;entryY=1.003;entryDx=0;entryDy=0;entryPerimeter=0;exitX=1;exitY=0.25;exitDx=0;exitDy=0;" edge="1" parent="1" source="c8-iHHj9m5I7r-0y1mb4-16" target="c8-iHHj9m5I7r-0y1mb4-41">
          <mxGeometry width="160" relative="1" as="geometry">
            <mxPoint x="230" y="660.17" as="sourcePoint" />
            <mxPoint x="390" y="660.17" as="targetPoint" />
          </mxGeometry>
        </mxCell>
        <mxCell id="c8-iHHj9m5I7r-0y1mb4-120" value="DbLink" style="edgeLabel;html=1;align=center;verticalAlign=middle;resizable=0;points=[];" vertex="1" connectable="0" parent="c8-iHHj9m5I7r-0y1mb4-119">
          <mxGeometry x="0.098" y="1" relative="1" as="geometry">
            <mxPoint as="offset" />
          </mxGeometry>
        </mxCell>
        <mxCell id="c8-iHHj9m5I7r-0y1mb4-121" value="" style="edgeStyle=elbowEdgeStyle;html=1;endArrow=open;elbow=vertical;endFill=0;dashed=1;dashPattern=1 4;rounded=0;entryX=0;entryY=1;entryDx=0;entryDy=0;" edge="1" parent="1" target="c8-iHHj9m5I7r-0y1mb4-50">
          <mxGeometry width="160" relative="1" as="geometry">
            <mxPoint x="240" y="624.75" as="sourcePoint" />
            <mxPoint x="400" y="624.75" as="targetPoint" />
          </mxGeometry>
        </mxCell>
        <mxCell id="c8-iHHj9m5I7r-0y1mb4-122" value="DBLINK" style="edgeLabel;html=1;align=center;verticalAlign=middle;resizable=0;points=[];" vertex="1" connectable="0" parent="c8-iHHj9m5I7r-0y1mb4-121">
          <mxGeometry x="-0.32" y="4" relative="1" as="geometry">
            <mxPoint as="offset" />
          </mxGeometry>
        </mxCell>
        <mxCell id="c8-iHHj9m5I7r-0y1mb4-123" value="" style="edgeStyle=elbowEdgeStyle;html=1;endArrow=open;elbow=horizontal;endFill=0;dashed=1;startArrow=open;startFill=0;dashPattern=1 4;rounded=0;entryX=1;entryY=0.5;entryDx=0;entryDy=0;exitX=0.008;exitY=0.659;exitDx=0;exitDy=0;exitPerimeter=0;" edge="1" parent="1" source="c8-iHHj9m5I7r-0y1mb4-57" target="c8-iHHj9m5I7r-0y1mb4-14">
          <mxGeometry width="160" relative="1" as="geometry">
            <mxPoint x="260" y="430" as="sourcePoint" />
            <mxPoint x="263" y="543" as="targetPoint" />
            <Array as="points">
              <mxPoint x="270" y="420" />
            </Array>
          </mxGeometry>
        </mxCell>
        <mxCell id="c8-iHHj9m5I7r-0y1mb4-124" value="WS" style="edgeLabel;html=1;align=center;verticalAlign=middle;resizable=0;points=[];" vertex="1" connectable="0" parent="c8-iHHj9m5I7r-0y1mb4-123">
          <mxGeometry x="-0.4504" y="-3" relative="1" as="geometry">
            <mxPoint as="offset" />
          </mxGeometry>
        </mxCell>
        <mxCell id="c8-iHHj9m5I7r-0y1mb4-128" value="" style="edgeStyle=elbowEdgeStyle;html=1;endArrow=open;elbow=vertical;endFill=0;dashed=1;startArrow=open;startFill=0;dashPattern=1 4;rounded=0;entryX=0;entryY=0;entryDx=0;entryDy=23;entryPerimeter=0;exitX=0.348;exitY=0.01;exitDx=0;exitDy=0;exitPerimeter=0;" edge="1" parent="1" source="c8-iHHj9m5I7r-0y1mb4-23" target="c8-iHHj9m5I7r-0y1mb4-56">
          <mxGeometry width="160" relative="1" as="geometry">
            <mxPoint x="350" y="14.949999999999989" as="sourcePoint" />
            <mxPoint x="510" y="14.949999999999989" as="targetPoint" />
          </mxGeometry>
        </mxCell>
        <mxCell id="c8-iHHj9m5I7r-0y1mb4-129" value="gRPC" style="edgeLabel;html=1;align=center;verticalAlign=middle;resizable=0;points=[];" vertex="1" connectable="0" parent="c8-iHHj9m5I7r-0y1mb4-128">
          <mxGeometry x="0.2106" y="-3" relative="1" as="geometry">
            <mxPoint as="offset" />
          </mxGeometry>
        </mxCell>
        <mxCell id="c8-iHHj9m5I7r-0y1mb4-131" value="" style="edgeStyle=elbowEdgeStyle;html=1;endArrow=open;elbow=vertical;endFill=0;dashed=1;startArrow=open;startFill=0;dashPattern=1 4;rounded=0;entryX=0.241;entryY=0.047;entryDx=0;entryDy=0;entryPerimeter=0;exitX=0.348;exitY=0.01;exitDx=0;exitDy=0;exitPerimeter=0;" edge="1" parent="1" target="c8-iHHj9m5I7r-0y1mb4-57">
          <mxGeometry width="160" relative="1" as="geometry">
            <mxPoint x="231.5" y="50" as="sourcePoint" />
            <mxPoint x="438.5" y="21" as="targetPoint" />
            <Array as="points">
              <mxPoint x="410" y="-20" />
            </Array>
          </mxGeometry>
        </mxCell>
        <mxCell id="c8-iHHj9m5I7r-0y1mb4-133" value="WS" style="edgeLabel;html=1;align=center;verticalAlign=middle;resizable=0;points=[];" vertex="1" connectable="0" parent="c8-iHHj9m5I7r-0y1mb4-131">
          <mxGeometry x="0.1549" y="-1" relative="1" as="geometry">
            <mxPoint as="offset" />
          </mxGeometry>
        </mxCell>
        <mxCell id="c8-iHHj9m5I7r-0y1mb4-134" value="" style="edgeStyle=elbowEdgeStyle;html=1;endArrow=open;elbow=vertical;endFill=0;dashed=1;startArrow=open;startFill=0;dashPattern=1 4;rounded=0;entryX=-0.016;entryY=0.846;entryDx=0;entryDy=0;entryPerimeter=0;exitX=1;exitY=0;exitDx=0;exitDy=0;" edge="1" parent="1" source="c8-iHHj9m5I7r-0y1mb4-13" target="c8-iHHj9m5I7r-0y1mb4-57">
          <mxGeometry width="160" relative="1" as="geometry">
            <mxPoint x="370" y="384.66999999999996" as="sourcePoint" />
            <mxPoint x="530" y="384.66999999999996" as="targetPoint" />
          </mxGeometry>
        </mxCell>
        <mxCell id="c8-iHHj9m5I7r-0y1mb4-135" value="WS" style="edgeLabel;html=1;align=center;verticalAlign=middle;resizable=0;points=[];" vertex="1" connectable="0" parent="c8-iHHj9m5I7r-0y1mb4-134">
          <mxGeometry x="0.2255" y="-3" relative="1" as="geometry">
            <mxPoint x="-1" as="offset" />
          </mxGeometry>
        </mxCell>
        <mxCell id="c8-iHHj9m5I7r-0y1mb4-136" value="" style="edgeStyle=elbowEdgeStyle;html=1;endArrow=open;elbow=horizontal;endFill=0;dashed=1;startArrow=open;startFill=0;dashPattern=1 4;rounded=0;entryX=0.517;entryY=0.051;entryDx=0;entryDy=0;entryPerimeter=0;exitX=0.355;exitY=1.035;exitDx=0;exitDy=0;exitPerimeter=0;" edge="1" parent="1" source="c8-iHHj9m5I7r-0y1mb4-23" target="c8-iHHj9m5I7r-0y1mb4-41">
          <mxGeometry width="160" relative="1" as="geometry">
            <mxPoint x="334" y="359.89" as="sourcePoint" />
            <mxPoint x="494" y="359.89" as="targetPoint" />
          </mxGeometry>
        </mxCell>
        <mxCell id="c8-iHHj9m5I7r-0y1mb4-137" value="Connection" style="edgeLabel;html=1;align=center;verticalAlign=middle;resizable=0;points=[];" vertex="1" connectable="0" parent="c8-iHHj9m5I7r-0y1mb4-136">
          <mxGeometry x="-0.1334" y="-1" relative="1" as="geometry">
            <mxPoint as="offset" />
          </mxGeometry>
        </mxCell>
        <mxCell id="c8-iHHj9m5I7r-0y1mb4-138" value="" style="edgeStyle=elbowEdgeStyle;html=1;endArrow=open;elbow=horizontal;endFill=0;dashed=1;startArrow=open;startFill=0;dashPattern=1 4;rounded=0;entryX=0.829;entryY=0.023;entryDx=0;entryDy=0;entryPerimeter=0;exitX=0.657;exitY=1.009;exitDx=0;exitDy=0;exitPerimeter=0;" edge="1" parent="1" source="c8-iHHj9m5I7r-0y1mb4-56" target="c8-iHHj9m5I7r-0y1mb4-57">
          <mxGeometry width="160" relative="1" as="geometry">
            <mxPoint x="600" y="64.89000000000003" as="sourcePoint" />
            <mxPoint x="690" y="64.67" as="targetPoint" />
          </mxGeometry>
        </mxCell>
        <mxCell id="c8-iHHj9m5I7r-0y1mb4-139" value="WS" style="edgeLabel;html=1;align=center;verticalAlign=middle;resizable=0;points=[];" vertex="1" connectable="0" parent="c8-iHHj9m5I7r-0y1mb4-138">
          <mxGeometry x="-0.4804" y="2" relative="1" as="geometry">
            <mxPoint as="offset" />
          </mxGeometry>
        </mxCell>
        <mxCell id="c8-iHHj9m5I7r-0y1mb4-140" value="" style="edgeStyle=elbowEdgeStyle;html=1;endArrow=open;elbow=horizontal;endFill=0;dashed=1;startArrow=open;startFill=0;dashPattern=1 4;rounded=0;entryX=-0.013;entryY=0.236;entryDx=0;entryDy=0;entryPerimeter=0;exitX=0.999;exitY=0.605;exitDx=0;exitDy=0;exitPerimeter=0;" edge="1" parent="1" source="c8-iHHj9m5I7r-0y1mb4-23" target="c8-iHHj9m5I7r-0y1mb4-57">
          <mxGeometry width="160" relative="1" as="geometry">
            <mxPoint x="530" y="142" as="sourcePoint" />
            <mxPoint x="530" y="190" as="targetPoint" />
          </mxGeometry>
        </mxCell>
        <mxCell id="c8-iHHj9m5I7r-0y1mb4-141" value="WS" style="edgeLabel;html=1;align=center;verticalAlign=middle;resizable=0;points=[];" vertex="1" connectable="0" parent="c8-iHHj9m5I7r-0y1mb4-140">
          <mxGeometry x="-0.4804" y="2" relative="1" as="geometry">
            <mxPoint as="offset" />
          </mxGeometry>
        </mxCell>
        <mxCell id="c8-iHHj9m5I7r-0y1mb4-142" value="" style="edgeStyle=elbowEdgeStyle;html=1;endArrow=open;elbow=horizontal;endFill=0;dashed=1;startArrow=open;startFill=0;dashPattern=1 4;rounded=0;" edge="1" parent="1">
          <mxGeometry width="160" relative="1" as="geometry">
            <mxPoint x="240" y="470.11" as="sourcePoint" />
            <mxPoint x="270" y="470" as="targetPoint" />
          </mxGeometry>
        </mxCell>
        <mxCell id="c8-iHHj9m5I7r-0y1mb4-144" value="DBlink" style="edgeLabel;html=1;align=center;verticalAlign=middle;resizable=0;points=[];" vertex="1" connectable="0" parent="c8-iHHj9m5I7r-0y1mb4-142">
          <mxGeometry x="-0.3914" relative="1" as="geometry">
            <mxPoint as="offset" />
          </mxGeometry>
        </mxCell>
        <mxCell id="c8-iHHj9m5I7r-0y1mb4-145" value="" style="edgeStyle=elbowEdgeStyle;html=1;endArrow=open;elbow=vertical;endFill=0;dashed=1;startArrow=open;startFill=0;dashPattern=1 4;rounded=0;exitX=0.18;exitY=1.016;exitDx=0;exitDy=0;exitPerimeter=0;fillColor=#fff2cc;strokeColor=#d6b656;" edge="1" parent="1" source="c8-iHHj9m5I7r-0y1mb4-23">
          <mxGeometry width="160" relative="1" as="geometry">
            <mxPoint x="-40" y="624.64" as="sourcePoint" />
            <mxPoint x="120" y="624.64" as="targetPoint" />
          </mxGeometry>
        </mxCell>
        <mxCell id="c8-iHHj9m5I7r-0y1mb4-146" value="Files&lt;br&gt;WS" style="edgeLabel;html=1;align=center;verticalAlign=middle;resizable=0;points=[];" vertex="1" connectable="0" parent="c8-iHHj9m5I7r-0y1mb4-145">
          <mxGeometry x="-0.6041" relative="1" as="geometry">
            <mxPoint as="offset" />
          </mxGeometry>
        </mxCell>
        <mxCell id="c8-iHHj9m5I7r-0y1mb4-147" value="" style="edgeStyle=elbowEdgeStyle;html=1;endArrow=open;elbow=vertical;endFill=0;dashed=1;startArrow=open;startFill=0;dashPattern=1 4;rounded=0;entryX=0;entryY=0.5;entryDx=0;entryDy=0;" edge="1" parent="1" target="c8-iHHj9m5I7r-0y1mb4-88">
          <mxGeometry width="160" relative="1" as="geometry">
            <mxPoint x="500" y="494.64" as="sourcePoint" />
            <mxPoint x="660" y="494.64" as="targetPoint" />
          </mxGeometry>
        </mxCell>
        <mxCell id="c8-iHHj9m5I7r-0y1mb4-148" value="WS" style="edgeLabel;html=1;align=center;verticalAlign=middle;resizable=0;points=[];" vertex="1" connectable="0" parent="c8-iHHj9m5I7r-0y1mb4-147">
          <mxGeometry x="0.4975" y="-5" relative="1" as="geometry">
            <mxPoint as="offset" />
          </mxGeometry>
        </mxCell>
        <mxCell id="c8-iHHj9m5I7r-0y1mb4-149" value="" style="edgeStyle=elbowEdgeStyle;html=1;endArrow=open;elbow=vertical;endFill=0;dashed=1;startArrow=open;startFill=0;dashPattern=1 4;rounded=0;" edge="1" parent="1">
          <mxGeometry width="160" relative="1" as="geometry">
            <mxPoint x="680" y="380" as="sourcePoint" />
            <mxPoint x="720" y="380" as="targetPoint" />
          </mxGeometry>
        </mxCell>
        <mxCell id="c8-iHHj9m5I7r-0y1mb4-157" value="WS" style="edgeLabel;html=1;align=center;verticalAlign=middle;resizable=0;points=[];" vertex="1" connectable="0" parent="c8-iHHj9m5I7r-0y1mb4-149">
          <mxGeometry x="0.2025" y="-2" relative="1" as="geometry">
            <mxPoint as="offset" />
          </mxGeometry>
        </mxCell>
        <mxCell id="c8-iHHj9m5I7r-0y1mb4-150" value="" style="edgeStyle=elbowEdgeStyle;html=1;endArrow=open;elbow=vertical;endFill=0;dashed=1;startArrow=open;startFill=0;dashPattern=1 4;rounded=0;entryX=0;entryY=0.25;entryDx=0;entryDy=0;" edge="1" parent="1" target="c8-iHHj9m5I7r-0y1mb4-65">
          <mxGeometry width="160" relative="1" as="geometry">
            <mxPoint x="680" y="410" as="sourcePoint" />
            <mxPoint x="720" y="410" as="targetPoint" />
          </mxGeometry>
        </mxCell>
        <mxCell id="c8-iHHj9m5I7r-0y1mb4-158" value="WS" style="edgeLabel;html=1;align=center;verticalAlign=middle;resizable=0;points=[];" vertex="1" connectable="0" parent="c8-iHHj9m5I7r-0y1mb4-150">
          <mxGeometry x="0.1148" relative="1" as="geometry">
            <mxPoint as="offset" />
          </mxGeometry>
        </mxCell>
        <mxCell id="c8-iHHj9m5I7r-0y1mb4-151" value="" style="edgeStyle=elbowEdgeStyle;html=1;endArrow=open;elbow=vertical;endFill=0;dashed=1;startArrow=open;startFill=0;dashPattern=1 4;rounded=0;" edge="1" parent="1">
          <mxGeometry width="160" relative="1" as="geometry">
            <mxPoint x="680" y="300" as="sourcePoint" />
            <mxPoint x="720" y="300" as="targetPoint" />
          </mxGeometry>
        </mxCell>
        <mxCell id="c8-iHHj9m5I7r-0y1mb4-156" value="WS" style="edgeLabel;html=1;align=center;verticalAlign=middle;resizable=0;points=[];" vertex="1" connectable="0" parent="c8-iHHj9m5I7r-0y1mb4-151">
          <mxGeometry x="0.3076" y="-3" relative="1" as="geometry">
            <mxPoint as="offset" />
          </mxGeometry>
        </mxCell>
        <mxCell id="c8-iHHj9m5I7r-0y1mb4-152" value="" style="edgeStyle=elbowEdgeStyle;html=1;endArrow=open;elbow=vertical;endFill=0;dashed=1;startArrow=open;startFill=0;dashPattern=1 4;rounded=0;" edge="1" parent="1">
          <mxGeometry width="160" relative="1" as="geometry">
            <mxPoint x="680" y="210" as="sourcePoint" />
            <mxPoint x="720" y="210" as="targetPoint" />
          </mxGeometry>
        </mxCell>
        <mxCell id="c8-iHHj9m5I7r-0y1mb4-155" value="WS" style="edgeLabel;html=1;align=center;verticalAlign=middle;resizable=0;points=[];" vertex="1" connectable="0" parent="c8-iHHj9m5I7r-0y1mb4-152">
          <mxGeometry x="0.2707" relative="1" as="geometry">
            <mxPoint as="offset" />
          </mxGeometry>
        </mxCell>
        <mxCell id="c8-iHHj9m5I7r-0y1mb4-153" value="" style="edgeStyle=elbowEdgeStyle;html=1;endArrow=open;elbow=vertical;endFill=0;dashed=1;startArrow=open;startFill=0;dashPattern=1 4;rounded=0;" edge="1" parent="1">
          <mxGeometry width="160" relative="1" as="geometry">
            <mxPoint x="680" y="144.84" as="sourcePoint" />
            <mxPoint x="720" y="144.84" as="targetPoint" />
          </mxGeometry>
        </mxCell>
        <mxCell id="c8-iHHj9m5I7r-0y1mb4-154" value="WS" style="edgeLabel;html=1;align=center;verticalAlign=middle;resizable=0;points=[];" vertex="1" connectable="0" parent="c8-iHHj9m5I7r-0y1mb4-153">
          <mxGeometry x="0.3071" relative="1" as="geometry">
            <mxPoint as="offset" />
          </mxGeometry>
        </mxCell>
        <mxCell id="c8-iHHj9m5I7r-0y1mb4-160" value="" style="edgeStyle=elbowEdgeStyle;html=1;endArrow=open;elbow=vertical;endFill=0;dashed=1;startArrow=open;startFill=0;dashPattern=1 4;rounded=0;entryX=0.456;entryY=-0.374;entryDx=0;entryDy=0;entryPerimeter=0;" edge="1" parent="1" target="c8-iHHj9m5I7r-0y1mb4-64">
          <mxGeometry width="160" relative="1" as="geometry">
            <mxPoint x="680" y="100.09" as="sourcePoint" />
            <mxPoint x="840" y="100.09" as="targetPoint" />
          </mxGeometry>
        </mxCell>
        <mxCell id="c8-iHHj9m5I7r-0y1mb4-161" value="WS" style="edgeLabel;html=1;align=center;verticalAlign=middle;resizable=0;points=[];" vertex="1" connectable="0" parent="c8-iHHj9m5I7r-0y1mb4-160">
          <mxGeometry x="0.516" y="2" relative="1" as="geometry">
            <mxPoint as="offset" />
          </mxGeometry>
        </mxCell>
        <mxCell id="c8-iHHj9m5I7r-0y1mb4-162" value="" style="edgeStyle=elbowEdgeStyle;html=1;endArrow=open;elbow=vertical;endFill=0;dashed=1;startArrow=open;startFill=0;dashPattern=1 4;rounded=0;entryX=0;entryY=0;entryDx=0;entryDy=0;" edge="1" parent="1" target="c8-iHHj9m5I7r-0y1mb4-93">
          <mxGeometry width="160" relative="1" as="geometry">
            <mxPoint x="680" y="250.09" as="sourcePoint" />
            <mxPoint x="840" y="250.09" as="targetPoint" />
          </mxGeometry>
        </mxCell>
        <mxCell id="c8-iHHj9m5I7r-0y1mb4-163" value="WS" style="edgeLabel;html=1;align=center;verticalAlign=middle;resizable=0;points=[];" vertex="1" connectable="0" parent="c8-iHHj9m5I7r-0y1mb4-162">
          <mxGeometry x="-0.1155" y="2" relative="1" as="geometry">
            <mxPoint as="offset" />
          </mxGeometry>
        </mxCell>
        <mxCell id="c8-iHHj9m5I7r-0y1mb4-164" value="" style="edgeStyle=elbowEdgeStyle;html=1;endArrow=open;elbow=vertical;endFill=0;dashed=1;startArrow=open;startFill=0;dashPattern=1 4;rounded=0;entryX=0.75;entryY=0;entryDx=0;entryDy=0;" edge="1" parent="1" target="c8-iHHj9m5I7r-0y1mb4-94">
          <mxGeometry width="160" relative="1" as="geometry">
            <mxPoint x="680" y="330" as="sourcePoint" />
            <mxPoint x="840" y="330" as="targetPoint" />
            <Array as="points">
              <mxPoint x="890" y="340" />
            </Array>
          </mxGeometry>
        </mxCell>
        <mxCell id="c8-iHHj9m5I7r-0y1mb4-165" value="WS" style="edgeLabel;html=1;align=center;verticalAlign=middle;resizable=0;points=[];" vertex="1" connectable="0" parent="c8-iHHj9m5I7r-0y1mb4-164">
          <mxGeometry x="0.1251" y="-2" relative="1" as="geometry">
            <mxPoint as="offset" />
          </mxGeometry>
        </mxCell>
        <mxCell id="c8-iHHj9m5I7r-0y1mb4-166" value="" style="edgeStyle=elbowEdgeStyle;html=1;endArrow=open;elbow=vertical;endFill=0;dashed=1;startArrow=open;startFill=0;dashPattern=1 4;rounded=0;" edge="1" parent="1" target="c8-iHHj9m5I7r-0y1mb4-65">
          <mxGeometry width="160" relative="1" as="geometry">
            <mxPoint x="500" y="469.65" as="sourcePoint" />
            <mxPoint x="660" y="469.65" as="targetPoint" />
          </mxGeometry>
        </mxCell>
        <mxCell id="c8-iHHj9m5I7r-0y1mb4-167" value="DB&lt;br&gt;link" style="edgeLabel;html=1;align=center;verticalAlign=middle;resizable=0;points=[];" vertex="1" connectable="0" parent="c8-iHHj9m5I7r-0y1mb4-166">
          <mxGeometry x="-0.2894" y="2" relative="1" as="geometry">
            <mxPoint as="offset" />
          </mxGeometry>
        </mxCell>
        <mxCell id="c8-iHHj9m5I7r-0y1mb4-168" value="" style="edgeStyle=elbowEdgeStyle;html=1;endArrow=open;elbow=horizontal;endFill=0;dashed=1;startArrow=open;startFill=0;dashPattern=1 4;rounded=0;exitX=0.049;exitY=1.005;exitDx=0;exitDy=0;exitPerimeter=0;entryX=-0.031;entryY=0.625;entryDx=0;entryDy=0;entryPerimeter=0;" edge="1" parent="1" source="c8-iHHj9m5I7r-0y1mb4-57" target="c8-iHHj9m5I7r-0y1mb4-66">
          <mxGeometry width="160" relative="1" as="geometry">
            <mxPoint x="550" y="500" as="sourcePoint" />
            <mxPoint x="550" y="520" as="targetPoint" />
            <Array as="points">
              <mxPoint x="540" y="490" />
            </Array>
          </mxGeometry>
        </mxCell>
        <mxCell id="c8-iHHj9m5I7r-0y1mb4-169" value="WS" style="edgeLabel;html=1;align=center;verticalAlign=middle;resizable=0;points=[];" vertex="1" connectable="0" parent="c8-iHHj9m5I7r-0y1mb4-168">
          <mxGeometry x="0.2025" y="-2" relative="1" as="geometry">
            <mxPoint as="offset" />
          </mxGeometry>
        </mxCell>
        <mxCell id="c8-iHHj9m5I7r-0y1mb4-170" value="" style="edgeStyle=elbowEdgeStyle;html=1;endArrow=open;elbow=vertical;endFill=0;dashed=1;startArrow=open;startFill=0;dashPattern=1 4;rounded=0;entryX=0;entryY=0.75;entryDx=0;entryDy=0;" edge="1" parent="1" target="c8-iHHj9m5I7r-0y1mb4-58">
          <mxGeometry width="160" relative="1" as="geometry">
            <mxPoint x="400" y="704.33" as="sourcePoint" />
            <mxPoint x="560" y="704.33" as="targetPoint" />
          </mxGeometry>
        </mxCell>
        <mxCell id="c8-iHHj9m5I7r-0y1mb4-171" value="DB&lt;br&gt;link" style="edgeLabel;html=1;align=center;verticalAlign=middle;resizable=0;points=[];" vertex="1" connectable="0" parent="c8-iHHj9m5I7r-0y1mb4-170">
          <mxGeometry x="-0.1683" y="-1" relative="1" as="geometry">
            <mxPoint as="offset" />
          </mxGeometry>
        </mxCell>
        <mxCell id="c8-iHHj9m5I7r-0y1mb4-172" value="" style="edgeStyle=elbowEdgeStyle;html=1;endArrow=open;elbow=vertical;endFill=0;dashed=1;startArrow=open;startFill=0;dashPattern=1 4;rounded=0;" edge="1" parent="1">
          <mxGeometry width="160" relative="1" as="geometry">
            <mxPoint x="720" y="624.67" as="sourcePoint" />
            <mxPoint x="760" y="624.67" as="targetPoint" />
          </mxGeometry>
        </mxCell>
        <mxCell id="c8-iHHj9m5I7r-0y1mb4-173" value="DB&amp;nbsp;&lt;br&gt;link" style="edgeLabel;html=1;align=center;verticalAlign=middle;resizable=0;points=[];" vertex="1" connectable="0" parent="c8-iHHj9m5I7r-0y1mb4-172">
          <mxGeometry x="0.2025" y="-2" relative="1" as="geometry">
            <mxPoint as="offset" />
          </mxGeometry>
        </mxCell>
        <mxCell id="c8-iHHj9m5I7r-0y1mb4-174" value="" style="edgeStyle=elbowEdgeStyle;html=1;endArrow=open;elbow=vertical;endFill=0;dashed=1;startArrow=open;startFill=0;dashPattern=1 4;rounded=0;entryX=-0.065;entryY=0.451;entryDx=0;entryDy=0;entryPerimeter=0;" edge="1" parent="1" target="c8-iHHj9m5I7r-0y1mb4-83">
          <mxGeometry width="160" relative="1" as="geometry">
            <mxPoint x="720" y="640" as="sourcePoint" />
            <mxPoint x="760" y="640" as="targetPoint" />
          </mxGeometry>
        </mxCell>
        <mxCell id="c8-iHHj9m5I7r-0y1mb4-175" value="DB&lt;br&gt;link" style="edgeLabel;html=1;align=center;verticalAlign=middle;resizable=0;points=[];" vertex="1" connectable="0" parent="c8-iHHj9m5I7r-0y1mb4-174">
          <mxGeometry x="0.2025" y="-2" relative="1" as="geometry">
            <mxPoint as="offset" />
          </mxGeometry>
        </mxCell>
        <mxCell id="c8-iHHj9m5I7r-0y1mb4-176" value="" style="edgeStyle=elbowEdgeStyle;html=1;endArrow=open;elbow=vertical;endFill=0;dashed=1;startArrow=open;startFill=0;dashPattern=1 4;rounded=0;entryX=0;entryY=0;entryDx=0;entryDy=41;entryPerimeter=0;" edge="1" parent="1" target="c8-iHHj9m5I7r-0y1mb4-81">
          <mxGeometry width="160" relative="1" as="geometry">
            <mxPoint x="720" y="610" as="sourcePoint" />
            <mxPoint x="760" y="610" as="targetPoint" />
          </mxGeometry>
        </mxCell>
        <mxCell id="c8-iHHj9m5I7r-0y1mb4-177" value="Files" style="edgeLabel;html=1;align=center;verticalAlign=middle;resizable=0;points=[];" vertex="1" connectable="0" parent="c8-iHHj9m5I7r-0y1mb4-176">
          <mxGeometry x="0.2025" y="-2" relative="1" as="geometry">
            <mxPoint as="offset" />
          </mxGeometry>
        </mxCell>
        <mxCell id="c8-iHHj9m5I7r-0y1mb4-178" value="" style="edgeStyle=elbowEdgeStyle;html=1;endArrow=open;elbow=vertical;endFill=0;dashed=1;startArrow=open;startFill=0;dashPattern=1 4;rounded=0;exitX=0.75;exitY=1;exitDx=0;exitDy=0;exitPerimeter=0;" edge="1" parent="1" source="c8-iHHj9m5I7r-0y1mb4-41">
          <mxGeometry width="160" relative="1" as="geometry">
            <mxPoint x="440" y="624.78" as="sourcePoint" />
            <mxPoint x="600" y="624.78" as="targetPoint" />
            <Array as="points">
              <mxPoint x="520" y="650" />
            </Array>
          </mxGeometry>
        </mxCell>
        <mxCell id="c8-iHHj9m5I7r-0y1mb4-179" value="DB&lt;br&gt;Link" style="edgeLabel;html=1;align=center;verticalAlign=middle;resizable=0;points=[];" vertex="1" connectable="0" parent="c8-iHHj9m5I7r-0y1mb4-178">
          <mxGeometry x="0.2429" y="1" relative="1" as="geometry">
            <mxPoint as="offset" />
          </mxGeometry>
        </mxCell>
        <mxCell id="c8-iHHj9m5I7r-0y1mb4-180" value="" style="edgeStyle=elbowEdgeStyle;html=1;endArrow=open;elbow=vertical;endFill=0;dashed=1;startArrow=open;startFill=0;dashPattern=1 4;rounded=0;entryX=0;entryY=0.5;entryDx=0;entryDy=0;" edge="1" parent="1" target="c8-iHHj9m5I7r-0y1mb4-96">
          <mxGeometry width="160" relative="1" as="geometry">
            <mxPoint x="827" y="639.26" as="sourcePoint" />
            <mxPoint x="877" y="639.63" as="targetPoint" />
          </mxGeometry>
        </mxCell>
        <mxCell id="c8-iHHj9m5I7r-0y1mb4-181" value="DB&lt;br&gt;linl" style="edgeLabel;html=1;align=center;verticalAlign=middle;resizable=0;points=[];" vertex="1" connectable="0" parent="c8-iHHj9m5I7r-0y1mb4-180">
          <mxGeometry x="-0.2588" y="-1" relative="1" as="geometry">
            <mxPoint as="offset" />
          </mxGeometry>
        </mxCell>
        <mxCell id="c8-iHHj9m5I7r-0y1mb4-184" value="" style="edgeStyle=elbowEdgeStyle;html=1;endArrow=open;elbow=vertical;endFill=0;dashed=1;startArrow=open;startFill=0;dashPattern=1 4;rounded=0;exitX=0.25;exitY=1;exitDx=0;exitDy=0;entryX=0.318;entryY=0.002;entryDx=0;entryDy=0;entryPerimeter=0;" edge="1" parent="1" source="c8-iHHj9m5I7r-0y1mb4-91" target="c8-iHHj9m5I7r-0y1mb4-97">
          <mxGeometry width="160" relative="1" as="geometry">
            <mxPoint x="1030" y="450" as="sourcePoint" />
            <mxPoint x="1070" y="450" as="targetPoint" />
          </mxGeometry>
        </mxCell>
        <mxCell id="c8-iHHj9m5I7r-0y1mb4-185" value="Files" style="edgeLabel;html=1;align=center;verticalAlign=middle;resizable=0;points=[];" vertex="1" connectable="0" parent="c8-iHHj9m5I7r-0y1mb4-184">
          <mxGeometry x="0.2025" y="-2" relative="1" as="geometry">
            <mxPoint as="offset" />
          </mxGeometry>
        </mxCell>
        <mxCell id="c8-iHHj9m5I7r-0y1mb4-186" value="" style="edgeStyle=elbowEdgeStyle;html=1;endArrow=open;elbow=vertical;endFill=0;dashed=1;startArrow=open;startFill=0;dashPattern=1 4;rounded=0;exitX=0.378;exitY=0.954;exitDx=0;exitDy=0;exitPerimeter=0;entryX=0.38;entryY=0.065;entryDx=0;entryDy=0;entryPerimeter=0;" edge="1" parent="1" source="c8-iHHj9m5I7r-0y1mb4-70" target="c8-iHHj9m5I7r-0y1mb4-71">
          <mxGeometry width="160" relative="1" as="geometry">
            <mxPoint x="740" y="340.09" as="sourcePoint" />
            <mxPoint x="780" y="340.09" as="targetPoint" />
          </mxGeometry>
        </mxCell>
        <mxCell id="c8-iHHj9m5I7r-0y1mb4-187" value="WS" style="edgeLabel;html=1;align=center;verticalAlign=middle;resizable=0;points=[];" vertex="1" connectable="0" parent="c8-iHHj9m5I7r-0y1mb4-186">
          <mxGeometry x="0.3076" y="-3" relative="1" as="geometry">
            <mxPoint as="offset" />
          </mxGeometry>
        </mxCell>
        <mxCell id="c8-iHHj9m5I7r-0y1mb4-188" value="" style="edgeStyle=elbowEdgeStyle;html=1;endArrow=open;elbow=vertical;endFill=0;dashed=1;startArrow=open;startFill=0;dashPattern=1 4;rounded=0;exitX=0.466;exitY=1.073;exitDx=0;exitDy=0;exitPerimeter=0;entryX=0.5;entryY=0;entryDx=0;entryDy=0;" edge="1" parent="1" source="c8-iHHj9m5I7r-0y1mb4-74" target="c8-iHHj9m5I7r-0y1mb4-69">
          <mxGeometry width="160" relative="1" as="geometry">
            <mxPoint x="750" y="420.09" as="sourcePoint" />
            <mxPoint x="790" y="420.09" as="targetPoint" />
          </mxGeometry>
        </mxCell>
        <mxCell id="c8-iHHj9m5I7r-0y1mb4-189" value="DB link" style="edgeLabel;html=1;align=center;verticalAlign=middle;resizable=0;points=[];" vertex="1" connectable="0" parent="c8-iHHj9m5I7r-0y1mb4-188">
          <mxGeometry x="0.3076" y="-3" relative="1" as="geometry">
            <mxPoint as="offset" />
          </mxGeometry>
        </mxCell>
        <mxCell id="c8-iHHj9m5I7r-0y1mb4-190" value="" style="edgeStyle=orthogonalEdgeStyle;rounded=0;orthogonalLoop=1;jettySize=auto;html=1;" edge="1" parent="1" source="c8-iHHj9m5I7r-0y1mb4-37" target="c8-iHHj9m5I7r-0y1mb4-9">
          <mxGeometry relative="1" as="geometry" />
        </mxCell>
        <mxCell id="c8-iHHj9m5I7r-0y1mb4-192" value="" style="edgeStyle=elbowEdgeStyle;html=1;endArrow=open;elbow=vertical;endFill=0;dashed=1;startArrow=open;startFill=0;dashPattern=1 4;rounded=0;exitX=0.869;exitY=1.238;exitDx=0;exitDy=0;exitPerimeter=0;entryX=0;entryY=0.25;entryDx=0;entryDy=0;" edge="1" parent="1" source="c8-iHHj9m5I7r-0y1mb4-60" target="c8-iHHj9m5I7r-0y1mb4-98">
          <mxGeometry width="160" relative="1" as="geometry">
            <mxPoint x="715" y="660" as="sourcePoint" />
            <mxPoint x="875" y="660" as="targetPoint" />
          </mxGeometry>
        </mxCell>
        <mxCell id="c8-iHHj9m5I7r-0y1mb4-193" value="DB&lt;br&gt;linl" style="edgeLabel;html=1;align=center;verticalAlign=middle;resizable=0;points=[];" vertex="1" connectable="0" parent="c8-iHHj9m5I7r-0y1mb4-192">
          <mxGeometry x="0.6132" y="-1" relative="1" as="geometry">
            <mxPoint as="offset" />
          </mxGeometry>
        </mxCell>
      </root>
    </mxGraphModel>
  </diagram>
</mxfile>
